# This file uses centimeters as units for non-parametric coordinates.

mtllib yane.mtl
g default
v -3.751640 1.094132 2.741793
v 3.751640 1.094132 2.741793
v -3.813077 1.189709 2.786692
v 3.813077 1.189709 2.786692
v -3.813077 1.189709 -2.786694
v 3.813077 1.189709 -2.786694
v -3.751640 1.094132 -2.741795
v 3.751640 1.094132 -2.741795
v -2.282353 3.461826 0.045424
v 2.282353 3.461826 0.064511
vt 0.038647 0.306929
vt 0.528572 0.341671
vt 0.030903 0.379415
vt 0.041359 0.270695
vt 0.030903 0.951179
vt 0.528572 0.951179
vt 0.030903 0.985113
vt 0.528572 0.985113
vt 0.506058 0.306929
vt 0.506058 0.270695
vt 0.506058 0.306929
vt 0.506058 0.270695
vt 0.272295 0.015648
vt 0.272295 0.015648
vt 0.528572 0.379415
vt 0.041359 0.306929
vt 0.030903 0.341671
vt 0.038647 0.270695
vt 0.141139 0.655692
vt 0.418335 0.655692
vn 0.000000 -0.425188 0.905105
vn 0.000000 -0.425188 0.905105
vn 0.000000 -0.425188 0.905105
vn 0.000000 -0.425188 0.905105
vn -0.000007 0.999990 0.004362
vn 0.000001 1.000000 -0.000517
vn -0.001001 0.768818 0.639466
vn -0.001001 0.768818 0.639466
vn 0.000000 -0.425187 -0.905105
vn 0.000000 -0.425187 -0.905105
vn 0.000000 -0.425187 -0.905105
vn 0.000000 -0.425187 -0.905105
vn 0.829349 0.558732 0.000000
vn 0.890645 0.454700 0.000000
vn 0.892481 0.451085 0.000000
vn -0.890917 0.454167 0.000000
vn -0.829349 0.558731 0.000000
vn -0.892210 0.451621 0.000000
vn 0.000978 0.781031 -0.624492
vn 0.000978 0.781031 -0.624492
vn -0.841205 -0.540717 0.000000
vn -0.841205 -0.540717 0.000000
vn 0.841204 -0.540717 0.000000
vn 0.841204 -0.540717 0.000000
s off
g pCube2
usemtl initialShadingGroup
f 1/17/1 2/2/2 4/15/3 3/3/4
s 1
f 10/20/5 9/19/6 3/3/7 4/15/8
s off
f 5/5/9 6/6/10 8/8/11 7/7/12
s 2
f 10/14/13 4/4/14 6/10/15
s 3
f 3/18/16 9/13/17 5/12/18
s 1
f 10/20/5 6/6/19 5/5/20 9/19/6
s 3
f 3/18/16 5/12/18 7/11/21 1/1/22
s 2
f 6/10/15 4/4/14 2/16/23 8/9/24
